<svg width="52" height="52" viewBox="0 0 52 52" fill="none" xmlns="http://www.w3.org/2000/svg">
<path d="M46.273 5.72702C42.5798 2.03381 37.6695 -0.000135058 32.4465 6.72636e-09C32.4462 6.72636e-09 32.4465 6.72636e-09 32.4462 6.72636e-09C27.2238 6.72636e-09 22.313 2.03408 18.6199 5.72702C14.9268 9.42024 12.8929 14.3307 12.8929 19.5536C12.8929 23.1177 13.8408 26.5359 15.6159 29.5215L1.38469 43.7527C0.491906 44.6457 0 45.8329 0 47.0958C0 48.3586 0.491771 49.5459 1.38469 50.4386L1.56122 50.6152C2.45413 51.5082 3.64135 52 4.90434 52C6.16733 52 7.35442 51.5082 8.24733 50.6153L22.4785 36.3841C25.4639 38.1594 28.8823 39.1071 32.4464 39.1071C37.6693 39.1071 42.5798 37.0732 46.273 33.3801C49.9662 29.687 52 24.7766 52 19.5536C52 14.3307 49.9663 9.42037 46.273 5.72702ZM5.85966 48.2276C5.60438 48.4829 5.2651 48.6234 4.90421 48.6234C4.54345 48.6234 4.20417 48.4828 3.94889 48.2276L3.77223 48.0508C3.51709 47.7957 3.37649 47.4565 3.37649 47.0958C3.37649 46.7348 3.51709 46.3955 3.77223 46.1403L17.6149 32.2978C17.9349 32.669 18.2698 33.03 18.6198 33.3801C18.9697 33.7302 19.3309 34.0651 19.7021 34.385L5.85966 48.2276ZM43.8853 30.9924C40.8299 34.0478 36.7674 35.7305 32.4465 35.7305C28.1255 35.7305 24.0632 34.0478 21.0079 30.9924C17.9524 27.937 16.2697 23.8746 16.2698 19.5538C16.2698 15.2326 17.9524 11.1703 21.0079 8.11484C24.0633 5.0594 28.1255 3.37662 32.4465 3.37676C36.7676 3.37676 40.83 5.0594 43.8854 8.11484C46.9409 11.1703 48.6236 15.2328 48.6235 19.5538C48.6234 23.8746 46.9407 27.937 43.8853 30.9924Z" fill="black"/>
</svg>
