<svg width="48" height="42" viewBox="0 0 48 42" fill="none" xmlns="http://www.w3.org/2000/svg">
<path d="M1.63989 1.00171H9.22323L16.0699 30.7067H43.4999L46.3599 9.56004H11.1949" stroke="black" stroke-width="1.5" stroke-linecap="round" stroke-linejoin="round"/>
<path d="M20.9885 35.3433H20.9668C19.4112 35.3433 18.1501 36.6044 18.1501 38.16V38.1817C18.1501 39.7373 19.4112 40.9983 20.9668 40.9983H20.9885C22.5441 40.9983 23.8051 39.7373 23.8051 38.1817V38.16C23.8051 36.6044 22.5441 35.3433 20.9885 35.3433Z" stroke="black" stroke-width="1.5" stroke-linecap="round" stroke-linejoin="round"/>
<path d="M20.9885 35.3433H20.9668C19.4112 35.3433 18.1501 36.6044 18.1501 38.16V38.1817C18.1501 39.7373 19.4112 40.9983 20.9668 40.9983H20.9885C22.5441 40.9983 23.8051 39.7373 23.8051 38.1817V38.16C23.8051 36.6044 22.5441 35.3433 20.9885 35.3433Z" stroke="black" stroke-width="1.5" stroke-linecap="round" stroke-linejoin="round"/>
<path d="M35.8515 35.3433H35.8298C34.2742 35.3433 33.0132 36.6044 33.0132 38.16V38.1817C33.0132 39.7373 34.2742 40.9983 35.8298 40.9983H35.8515C37.4071 40.9983 38.6682 39.7373 38.6682 38.1817V38.16C38.6682 36.6044 37.4071 35.3433 35.8515 35.3433Z" stroke="black" stroke-width="1.5" stroke-linecap="round" stroke-linejoin="round"/>
</svg>
